<svg width="132" height="48" viewBox="0 0 132 48" fill="none" xmlns="http://www.w3.org/2000/svg">
<path d="M-1.11684e-06 25.5504L8.17483 25.5504L8.17483 22.4494L0.0174246 22.4494C0.0365979 22.3209 0.045321 22.2264 0.0662374 22.1354C0.28708 21.2518 0.654374 20.4135 1.15214 19.6571C1.20366 19.5583 1.28221 19.4769 1.37817 19.423C1.47414 19.3692 1.58337 19.3451 1.69249 19.3538C3.79459 19.3681 5.89495 19.3627 7.99705 19.3645L8.57922 19.3645C8.68205 18.9256 8.77269 18.4991 8.8825 18.0798C10.7499 10.9858 14.8913 5.79189 21.3069 2.49821C24.8881 0.648618 28.8831 -0.199559 32.8876 0.0395472C38.2108 0.325023 42.8787 2.31086 46.9103 5.85969C49.8359 8.42322 52.0984 11.686 53.4972 15.3589C54.0838 16.8655 54.5059 18.4338 54.7557 20.0354C54.7888 20.2602 54.8638 20.3262 55.0869 20.328C60.3857 20.3654 65.6828 20.3958 70.9816 20.46C77.676 20.5409 84.371 20.6384 91.0666 20.7526C96.5693 20.8472 102.072 20.9524 107.573 21.1095C111.432 21.2129 115.29 21.3628 119.147 21.5591C122.71 21.7375 126.267 22.0105 129.826 22.2442C130.459 22.2853 131.09 22.3406 131.721 22.4458L55.0607 22.4458L55.0607 25.5504L132 25.5504L132 25.5986C130.686 25.6985 129.373 25.8252 128.059 25.8965C123.491 26.1446 118.924 26.3908 114.354 26.6102C111.756 26.7316 109.158 26.7887 106.559 26.8707C102.269 26.9938 97.9795 27.1241 93.6898 27.2133C88.3933 27.3239 83.0957 27.4125 77.7969 27.4791C70.3489 27.5684 62.9009 27.6219 55.4512 27.6897C54.8045 27.6897 54.815 27.6986 54.6877 28.3516C53.417 34.8783 50.168 40.09 44.7855 43.8565C41.6309 46.0657 37.9878 47.4344 34.1861 47.8389C28.9169 48.4349 23.9754 47.3875 19.468 44.5238C13.7421 40.884 10.1166 35.6687 8.64545 28.9154C8.59316 28.6764 8.48161 28.6514 8.28464 28.6514C6.07448 28.6514 3.86605 28.6514 1.66112 28.6514C1.56554 28.66 1.46954 28.6405 1.38435 28.5954C1.29916 28.5502 1.2283 28.4811 1.18004 28.3962C0.606592 27.5369 0.205492 26.5696 -1.11684e-06 25.5504ZM27.3918 22.4423L12.0391 22.4423C11.1014 22.4423 10.1636 22.4423 9.22414 22.4423C9.02369 22.4423 8.94699 22.5047 8.94874 22.7153C8.94874 23.0043 8.91737 23.2933 8.91389 23.5842C8.91389 24.2301 8.91389 24.8777 8.91389 25.5468L54.2328 25.5468C54.2489 25.5048 54.2606 25.4611 54.2676 25.4166L54.2798 22.6564C54.2798 22.4512 54.1509 22.4512 54.0027 22.4512C50.914 22.4512 47.8254 22.4512 44.7367 22.4512C39.4972 22.4512 34.2576 22.4512 29.018 22.4512C28.8591 22.4452 28.7072 22.382 28.5892 22.2728C25.0021 18.6139 21.4202 14.9503 17.8434 11.2819C17.779 11.2159 17.7232 11.141 17.6378 11.0429C17.6989 11.0317 17.7606 11.0239 17.8225 11.0197C19.0636 11.0197 20.3046 11.009 21.5457 11.0197C21.6958 11.0412 21.8338 11.1157 21.9361 11.2302C24.4925 13.8471 27.049 16.4639 29.6054 19.0808C29.6927 19.1805 29.8006 19.259 29.9211 19.3109C30.0417 19.3627 30.172 19.3865 30.3027 19.3805C35.648 19.3722 40.9933 19.3722 46.3386 19.3805L46.7482 19.3805L46.7482 20.3012L53.9975 20.3012C49.6573 9.1159 41.2629 1.29386 32.166 0.767511C29.0334 0.640597 25.9133 1.2408 23.0394 2.52319C13.01 6.93201 9.89696 17.5928 9.40368 19.3841L9.78366 19.3841C14.5631 19.3841 19.343 19.3841 24.1236 19.3841C24.2144 19.3792 24.3052 19.3947 24.3895 19.4295C24.4738 19.4643 24.5496 19.5177 24.6117 19.5857C24.8748 19.8257 25.1234 20.0819 25.3559 20.3529C25.5616 20.6027 26.0723 21.1701 27.3918 22.4423ZM26.0985 28.6318L9.40019 28.6318C9.40019 28.6318 20.7299 47.855 32.7568 47.2002C45.1324 46.5275 52.8017 36.6411 53.9975 27.7396L46.7883 27.7396L46.7883 28.6318L34.9356 28.6318L34.8834 28.7584L38.9063 32.9139L38.7076 32.9139C37.4874 32.9139 36.2534 32.9139 35.0263 32.9014C34.8604 32.8905 34.7028 32.8233 34.5783 32.7105C34.2297 32.3608 33.8811 32.0099 33.5325 31.6578C33.0322 31.1493 32.3647 30.3393 30.8256 28.8887C30.6844 28.7549 30.5711 28.6496 30.5031 28.5871C29.7919 28.5515 29.0407 28.5354 28.2546 28.5443C27.5068 28.5532 26.7835 28.5836 26.0985 28.6318Z" fill="white"/>
<path d="M35.247 15.7511L35.247 15.7511L35.2528 15.7569C36.0792 16.5765 37.0999 17 38.2617 17H50.3711C51.5365 17 52.5594 16.5775 53.3829 15.754C54.2087 14.9282 54.6367 13.9066 54.6367 12.7422V4.82031V3.82031H53.6367H51.7695H50.7695V4.82031V12.7422C50.7695 12.8643 50.7382 12.9375 50.6562 13.0195C50.565 13.1107 50.4875 13.1406 50.3711 13.1406H38.2617C38.1458 13.1406 38.0746 13.1113 37.9912 13.0262L37.9845 13.0194L37.9777 13.0128C37.8926 12.9293 37.8633 12.8581 37.8633 12.7422V4.82031V3.82031H36.8633H35.0039H34.0039V4.82031V12.7422C34.0039 13.904 34.4274 14.9247 35.247 15.7511ZM74.3539 3.82031H73.3539V4.82031V12.3893L60.7524 3.98826L60.5004 3.82031H60.1977H57.5883H56.5883V4.82031V16V17H57.5883H59.4477H60.4477V16V8.43045L73.0572 16.8322L73.3091 17H73.6117H76.2211H77.2211V16V4.82031V3.82031H76.2211H74.3539ZM99.8055 4.82031V3.82031H98.8055H96.9383H95.9383V4.82031V5.75C95.9383 6.51605 95.679 7.1419 95.1374 7.68352C94.6025 8.21842 93.9799 8.47656 93.2117 8.47656H83.032V4.82031V3.82031H82.032H80.1727H79.1727V4.82031V16V17H80.1727H82.032H83.032V16V12.3438H93.2117C93.9776 12.3438 94.5994 12.6028 95.1349 13.1421L95.1374 13.1446C95.6801 13.6873 95.9383 14.311 95.9383 15.0703V16V17H96.9383H98.8055H99.8055V16V15.0703C99.8055 13.9491 99.5339 12.89 98.9942 11.9087C98.6883 11.3511 98.3144 10.8523 97.8746 10.4141C98.3144 9.97585 98.6883 9.47698 98.9942 8.91942C99.5344 7.93726 99.8055 6.87549 99.8055 5.75V4.82031ZM122.39 15.0703C122.39 13.5853 121.953 12.2649 121.095 11.1386C121.339 10.902 121.556 10.6352 121.743 10.3393L121.746 10.3339C122.174 9.64777 122.39 8.88864 122.39 8.07812C122.39 6.9147 121.962 5.89502 121.136 5.0738C120.313 4.2463 119.291 3.82031 118.124 3.82031H102.757H101.757V4.82031V16V17H102.757H104.616H105.616V16V12.3438H115.796C116.562 12.3438 117.184 12.6028 117.719 13.1421L117.722 13.1446C118.264 13.6873 118.523 14.311 118.523 15.0703V16V17H119.523H121.39H122.39V16V15.0703ZM105.616 8.47656V7.6875H118.124C118.244 7.6875 118.322 7.71787 118.409 7.80099C118.495 7.89066 118.523 7.96763 118.523 8.07812C118.523 8.1975 118.492 8.27609 118.409 8.3631C118.322 8.4462 118.244 8.47656 118.124 8.47656H105.616Z" fill="white" stroke="black" stroke-width="2"/>
</svg>
